<svg width="145" height="22" viewBox="0 0 145 22" fill="none" xmlns="http://www.w3.org/2000/svg">
<path d="M4.02982 21.24L0.774821 21.015C0.754821 18.845 0.704821 16.64 0.624821 14.4C0.554821 12.15 0.469821 9.925 0.369821 7.725C0.279821 5.525 0.184821 3.425 0.0848213 1.425C1.18482 1.395 2.19482 1.38 3.11482 1.38C4.03482 1.38 4.88482 1.385 5.66482 1.395C6.66482 1.415 7.56482 1.46 8.36482 1.53C9.16482 1.6 9.93482 1.69 10.6748 1.8C10.7248 2.24 10.7598 2.715 10.7798 3.225C10.7998 3.735 10.8098 4.16 10.8098 4.5C10.4298 4.46 9.87482 4.415 9.14482 4.365C8.41482 4.305 7.53982 4.255 6.51982 4.215C5.49982 4.165 4.35482 4.14 3.08482 4.14C3.12482 4.52 3.16482 5.02 3.20482 5.64C3.24482 6.26 3.27982 6.91 3.30982 7.59C3.33982 8.26 3.36982 8.875 3.39982 9.435C4.44982 9.435 5.42982 9.46 6.33982 9.51C7.25982 9.56 8.03482 9.62 8.66482 9.69C9.29482 9.75 9.69482 9.795 9.86482 9.825C9.86482 10.195 9.85482 10.595 9.83482 11.025C9.82482 11.455 9.80482 11.865 9.77482 12.255C9.23482 12.195 8.59482 12.14 7.85482 12.09C7.11482 12.04 6.36482 12 5.60482 11.97C4.85482 11.94 4.17982 11.925 3.57982 11.925C3.64982 12.775 3.71482 13.735 3.77482 14.805C3.83482 15.865 3.88982 16.95 3.93982 18.06C3.98982 19.17 4.01982 20.23 4.02982 21.24ZM19.2569 21.315C18.0069 21.315 16.8719 21.15 15.8519 20.82C14.8419 20.48 14.0369 19.94 13.4369 19.2C12.8369 18.45 12.5369 17.455 12.5369 16.215C12.5369 15.025 12.8719 14.04 13.5419 13.26C14.2119 12.48 15.1169 11.905 16.2569 11.535C17.4069 11.155 18.6919 10.965 20.1119 10.965C20.7719 10.965 21.4169 11.015 22.0469 11.115C22.6769 11.205 23.2219 11.315 23.6819 11.445C24.1419 11.565 24.4519 11.66 24.6119 11.73C24.5819 11.4 24.5219 11.065 24.4319 10.725C24.3519 10.375 24.2269 10.07 24.0569 9.81C23.6769 9.14 23.1219 8.59 22.3919 8.16C21.6719 7.72 20.7669 7.5 19.6769 7.5C18.5269 7.5 17.5519 7.75 16.7519 8.25C15.9519 8.74 15.3519 9.325 14.9519 10.005L12.5219 8.4C12.9619 7.75 13.5419 7.175 14.2619 6.675C14.9819 6.175 15.8119 5.78 16.7519 5.49C17.6919 5.2 18.7019 5.055 19.7819 5.055C21.4619 5.055 22.8519 5.375 23.9519 6.015C25.0519 6.655 25.8569 7.5 26.3669 8.55C26.6269 9.08 26.8319 9.66 26.9819 10.29C27.1319 10.92 27.2219 11.7 27.2519 12.63C27.2719 13.61 27.2919 14.445 27.3119 15.135C27.3419 15.825 27.3719 16.42 27.4019 16.92C27.4519 17.57 27.5519 17.99 27.7019 18.18C27.8519 18.37 28.0669 18.465 28.3469 18.465C28.6669 18.465 28.9369 18.33 29.1569 18.06C29.3769 17.78 29.5019 17.39 29.5319 16.89L30.9719 18.48C30.9119 19.32 30.6169 19.96 30.0869 20.4C29.5569 20.84 28.9369 21.06 28.2269 21.06C27.6669 21.06 27.1719 20.955 26.7419 20.745C26.3219 20.525 25.9869 20.245 25.7369 19.905C25.4869 19.565 25.3419 19.215 25.3019 18.855C25.1019 19.225 24.7119 19.6 24.1319 19.98C23.5619 20.36 22.8569 20.68 22.0169 20.94C21.1869 21.19 20.2669 21.315 19.2569 21.315ZM19.7969 18.96C20.4469 18.96 21.0819 18.86 21.7019 18.66C22.3219 18.46 22.8919 18.195 23.4119 17.865C23.9419 17.535 24.3769 17.17 24.7169 16.77C24.7069 16.15 24.7069 15.6 24.7169 15.12C24.7269 14.63 24.7419 14.18 24.7619 13.77C24.4719 13.67 23.9169 13.54 23.0969 13.38C22.2769 13.21 21.3519 13.125 20.3219 13.125C19.4319 13.125 18.6219 13.245 17.8919 13.485C17.1719 13.715 16.5969 14.05 16.1669 14.49C15.7469 14.93 15.5369 15.46 15.5369 16.08C15.5369 16.83 15.7169 17.415 16.0769 17.835C16.4469 18.245 16.9519 18.535 17.5919 18.705C18.2319 18.875 18.9669 18.96 19.7969 18.96ZM45.2808 20.925C44.4508 20.965 43.4608 21 42.3108 21.03C41.1708 21.07 40.0008 21.09 38.8008 21.09C37.4808 21.09 36.1808 21.07 34.9008 21.03C33.6308 20.99 32.5258 20.92 31.5858 20.82L31.7208 18.345C31.9608 18.025 32.3308 17.58 32.8308 17.01C33.3408 16.44 33.9208 15.8 34.5708 15.09C35.2208 14.37 35.8958 13.63 36.5958 12.87C37.2958 12.11 37.9708 11.385 38.6208 10.695C39.2808 10.005 39.8608 9.4 40.3608 8.88C40.8608 8.36 41.2308 7.99 41.4708 7.77C41.3308 7.76 41.1058 7.75 40.7958 7.74C40.4958 7.73 40.1408 7.725 39.7308 7.725C39.3308 7.725 38.9058 7.725 38.4558 7.725C38.0058 7.725 37.5708 7.725 37.1508 7.725C36.6008 7.725 36.0358 7.73 35.4558 7.74C34.8758 7.75 34.3258 7.76 33.8058 7.77C33.2958 7.78 32.8708 7.795 32.5308 7.815C32.2008 7.825 32.0008 7.835 31.9308 7.845L32.0508 5.43C32.2908 5.43 32.6508 5.425 33.1308 5.415C33.6108 5.405 34.1758 5.395 34.8258 5.385C35.4858 5.375 36.2008 5.365 36.9708 5.355C37.7408 5.345 38.5308 5.34 39.3408 5.34C40.2608 5.34 41.2208 5.345 42.2208 5.355C43.2308 5.355 44.1858 5.375 45.0858 5.415C45.0958 5.455 45.1058 5.575 45.1158 5.775C45.1358 5.965 45.1508 6.185 45.1608 6.435C45.1808 6.685 45.1958 6.92 45.2058 7.14C45.2158 7.35 45.2208 7.5 45.2208 7.59C44.8908 7.88 44.4458 8.31 43.8858 8.88C43.3258 9.44 42.7058 10.075 42.0258 10.785C41.3558 11.495 40.6658 12.23 39.9558 12.99C39.2558 13.74 38.5858 14.47 37.9458 15.18C37.3158 15.88 36.7658 16.5 36.2958 17.04C35.8258 17.58 35.4858 17.99 35.2758 18.27C35.5458 18.31 36.0808 18.34 36.8808 18.36C37.6908 18.38 38.5308 18.39 39.4008 18.39C40.1508 18.39 40.9158 18.38 41.6958 18.36C42.4858 18.34 43.2108 18.31 43.8708 18.27C44.5308 18.23 45.0608 18.19 45.4608 18.15C45.4608 18.24 45.4558 18.415 45.4458 18.675C45.4358 18.935 45.4208 19.22 45.4008 19.53C45.3908 19.84 45.3758 20.125 45.3558 20.385C45.3358 20.645 45.3108 20.825 45.2808 20.925ZM62.429 17.655C62.229 17.935 61.934 18.26 61.544 18.63C61.154 18.99 60.669 19.34 60.089 19.68C59.509 20.01 58.834 20.285 58.064 20.505C57.294 20.725 56.424 20.835 55.454 20.835C53.954 20.835 52.639 20.53 51.509 19.92C50.379 19.31 49.504 18.42 48.884 17.25C48.264 16.07 47.954 14.635 47.954 12.945C47.954 11.325 48.289 9.92 48.959 8.73C49.639 7.54 50.569 6.62 51.749 5.97C52.929 5.32 54.284 4.995 55.814 4.995C57.734 4.995 59.229 5.58 60.299 6.75C61.379 7.92 61.979 9.49 62.099 11.46C62.119 11.78 62.129 12.09 62.129 12.39C62.129 12.68 62.114 12.98 62.084 13.29C61.954 13.28 61.684 13.27 61.274 13.26C60.874 13.24 60.404 13.225 59.864 13.215C59.324 13.195 58.779 13.18 58.229 13.17C57.689 13.15 57.224 13.14 56.834 13.14C55.824 13.14 54.789 13.19 53.729 13.29C52.669 13.39 51.724 13.505 50.894 13.635C50.904 13.895 50.929 14.15 50.969 14.4C51.009 14.65 51.059 14.89 51.119 15.12C51.289 15.73 51.599 16.26 52.049 16.71C52.499 17.15 53.034 17.49 53.654 17.73C54.284 17.97 54.949 18.09 55.649 18.09C56.389 18.09 57.034 17.98 57.584 17.76C58.134 17.54 58.604 17.27 58.994 16.95C59.394 16.63 59.714 16.325 59.954 16.035C60.204 15.745 60.394 15.53 60.524 15.39C60.584 15.44 60.699 15.55 60.869 15.72C61.049 15.88 61.239 16.075 61.439 16.305C61.649 16.535 61.844 16.77 62.024 17.01C62.214 17.24 62.349 17.455 62.429 17.655ZM50.939 11.625C51.659 11.505 52.504 11.4 53.474 11.31C54.454 11.22 55.564 11.175 56.804 11.175C57.454 11.175 58.004 11.185 58.454 11.205C58.914 11.215 59.234 11.23 59.414 11.25C59.414 10.92 59.374 10.57 59.294 10.2C59.184 9.7 58.984 9.215 58.694 8.745C58.404 8.275 58.009 7.885 57.509 7.575C57.019 7.255 56.399 7.095 55.649 7.095C54.789 7.095 54.004 7.28 53.294 7.65C52.594 8.01 52.034 8.53 51.614 9.21C51.194 9.88 50.969 10.685 50.939 11.625ZM68.3318 21.195C68.1418 21.195 67.9118 21.195 67.6418 21.195C67.3718 21.205 67.1018 21.205 66.8318 21.195C66.5818 21.185 66.2968 21.17 65.9768 21.15C65.6568 21.14 65.4218 21.125 65.2718 21.105C65.3718 20.275 65.4568 19.37 65.5268 18.39C65.6068 17.4 65.6718 16.29 65.7218 15.06C65.7718 13.82 65.8118 12.415 65.8418 10.845C65.8718 9.265 65.8868 7.47 65.8868 5.46C66.1268 5.42 66.4118 5.39 66.7418 5.37C67.0818 5.34 67.4268 5.325 67.7768 5.325C67.9968 5.325 68.2168 5.33 68.4368 5.34C68.6668 5.35 68.8668 5.37 69.0368 5.4C69.0468 5.51 69.0518 5.71 69.0518 6C69.0618 6.29 69.0618 6.61 69.0518 6.96C69.0518 7.31 69.0518 7.62 69.0518 7.89C69.4218 7.48 69.9468 7.06 70.6268 6.63C71.3068 6.2 72.0668 5.84 72.9068 5.55C73.7468 5.25 74.5918 5.1 75.4418 5.1C76.9618 5.1 78.1168 5.405 78.9068 6.015C79.6968 6.615 80.2318 7.505 80.5118 8.685C80.8018 9.865 80.9468 11.33 80.9468 13.08C80.9468 13.76 80.9268 14.53 80.8868 15.39C80.8568 16.25 80.8018 17.16 80.7218 18.12C80.6518 19.08 80.5568 20.055 80.4368 21.045C80.2968 21.065 80.0818 21.08 79.7918 21.09C79.5118 21.11 79.2118 21.12 78.8918 21.12C78.5718 21.12 78.2668 21.115 77.9768 21.105C77.6868 21.095 77.4568 21.075 77.2868 21.045C77.4168 20.195 77.5368 19.31 77.6468 18.39C77.7568 17.46 77.8468 16.54 77.9168 15.63C77.9868 14.71 78.0218 13.845 78.0218 13.035C78.0218 11.995 77.9418 11.085 77.7818 10.305C77.6318 9.525 77.3268 8.92 76.8668 8.49C76.4168 8.06 75.7518 7.845 74.8718 7.845C73.9618 7.845 73.1268 7.995 72.3668 8.295C71.6068 8.595 70.9418 8.95 70.3718 9.36C69.8118 9.77 69.3568 10.135 69.0068 10.455C68.9668 12.145 68.9068 13.695 68.8268 15.105C68.7468 16.515 68.6618 17.74 68.5718 18.78C68.4818 19.82 68.4018 20.625 68.3318 21.195Z" fill="#05335F"/>
<path d="M84.0529 3.9C84.0329 3.75 84.0079 3.55 83.9779 3.3C83.9479 3.04 83.9229 2.775 83.9029 2.505C83.8929 2.225 83.8829 1.97 83.8729 1.74C83.8629 1.5 83.8579 1.32 83.8579 1.2C84.9979 1.14 86.3029 1.08 87.7729 1.02C89.2529 0.959999 90.7429 0.929999 92.2429 0.929999C93.3329 0.929999 94.3929 0.949999 95.4229 0.989998C96.4529 1.03 97.3979 1.105 98.2579 1.215C98.2679 1.705 98.2579 2.185 98.2279 2.655C98.2079 3.125 98.1779 3.495 98.1379 3.765C97.9279 3.755 97.6029 3.745 97.1629 3.735C96.7329 3.725 96.2479 3.72 95.7079 3.72C95.1679 3.71 94.6279 3.705 94.0879 3.705C93.5579 3.695 93.0879 3.685 92.6779 3.675C92.6879 4.045 92.7029 4.615 92.7229 5.385C92.7529 6.155 92.7829 7.045 92.8129 8.055C92.8429 9.065 92.8729 10.13 92.9029 11.25C92.9429 12.37 92.9779 13.48 93.0079 14.58C93.0479 15.67 93.0829 16.675 93.1129 17.595C93.1429 18.505 93.1679 19.265 93.1879 19.875C93.2179 20.485 93.2329 20.86 93.2329 21C92.9929 21.04 92.6629 21.075 92.2429 21.105C91.8329 21.145 91.4229 21.17 91.0129 21.18C90.6029 21.2 90.2779 21.21 90.0379 21.21C90.0079 20.61 89.9779 19.845 89.9479 18.915C89.9179 17.985 89.8879 16.96 89.8579 15.84C89.8379 14.71 89.8179 13.555 89.7979 12.375C89.7779 11.195 89.7629 10.05 89.7529 8.94C89.7429 7.83 89.7379 6.83 89.7379 5.94C89.7379 5.49 89.7379 5.08 89.7379 4.71C89.7479 4.33 89.7529 3.995 89.7529 3.705C89.3629 3.725 88.9129 3.745 88.4029 3.765C87.8929 3.775 87.3729 3.79 86.8429 3.81C86.3129 3.83 85.8029 3.85 85.3129 3.87C84.8329 3.88 84.4129 3.89 84.0529 3.9ZM111.219 21.165C110.139 21.105 109.084 21.05 108.054 21C107.034 20.96 105.979 20.93 104.889 20.91C104.249 20.89 103.579 20.87 102.879 20.85C102.179 20.83 101.509 20.815 100.869 20.805C100.809 19.235 100.764 17.685 100.734 16.155C100.714 14.625 100.704 13.17 100.704 11.79C100.704 9.3 100.719 7.24 100.749 5.61C100.789 3.97 100.829 2.845 100.869 2.235C102.659 1.935 104.319 1.71 105.849 1.56C107.379 1.4 108.659 1.295 109.689 1.245C110.719 1.185 111.369 1.155 111.639 1.155C111.639 1.605 111.624 2.025 111.594 2.415C111.574 2.795 111.544 3.21 111.504 3.66L103.869 4.275C103.849 4.505 103.834 4.84 103.824 5.28C103.814 5.72 103.804 6.19 103.794 6.69C103.784 7.19 103.774 7.66 103.764 8.1C103.764 8.54 103.764 8.87 103.764 9.09C103.994 9.09 104.334 9.085 104.784 9.075C105.234 9.055 105.739 9.04 106.299 9.03C106.859 9.01 107.419 8.995 107.979 8.985C108.549 8.965 109.069 8.95 109.539 8.94C110.019 8.93 110.394 8.925 110.664 8.925L110.709 11.565C110.559 11.565 110.259 11.56 109.809 11.55C109.359 11.54 108.829 11.535 108.219 11.535C107.619 11.525 107.009 11.52 106.389 11.52C105.769 11.51 105.214 11.505 104.724 11.505C104.244 11.505 103.904 11.505 103.704 11.505C103.694 11.635 103.689 11.895 103.689 12.285C103.689 12.665 103.689 13.115 103.689 13.635C103.689 14.155 103.684 14.69 103.674 15.24C103.674 15.79 103.674 16.31 103.674 16.8C103.674 17.28 103.674 17.67 103.674 17.97C103.894 17.96 104.284 17.955 104.844 17.955C105.404 17.945 105.929 17.94 106.419 17.94C107.079 17.94 107.739 17.95 108.399 17.97C109.059 17.99 109.669 18.015 110.229 18.045C110.789 18.065 111.234 18.09 111.564 18.12C111.554 18.37 111.534 18.655 111.504 18.975C111.484 19.285 111.454 19.59 111.414 19.89C111.384 20.19 111.349 20.455 111.309 20.685C111.279 20.915 111.249 21.075 111.219 21.165ZM129.279 17.085C128.779 17.795 128.174 18.46 127.464 19.08C126.754 19.69 125.944 20.19 125.034 20.58C124.134 20.96 123.124 21.15 122.004 21.15C120.744 21.15 119.619 20.89 118.629 20.37C117.649 19.84 116.814 19.11 116.124 18.18C115.444 17.25 114.924 16.17 114.564 14.94C114.214 13.7 114.039 12.37 114.039 10.95C114.039 9.1 114.344 7.435 114.954 5.955C115.564 4.465 116.464 3.285 117.654 2.415C118.854 1.545 120.314 1.11 122.034 1.11C123.474 1.11 124.804 1.43 126.024 2.07C127.244 2.71 128.169 3.6 128.799 4.74C128.639 4.92 128.414 5.13 128.124 5.37C127.834 5.61 127.539 5.84 127.239 6.06C126.949 6.27 126.699 6.44 126.489 6.57C126.419 6.42 126.289 6.195 126.099 5.895C125.919 5.595 125.654 5.29 125.304 4.98C124.964 4.67 124.519 4.405 123.969 4.185C123.419 3.955 122.744 3.84 121.944 3.84C121.364 3.84 120.799 3.98 120.249 4.26C119.699 4.53 119.204 4.95 118.764 5.52C118.324 6.08 117.974 6.81 117.714 7.71C117.454 8.6 117.324 9.66 117.324 10.89C117.324 11.9 117.444 12.845 117.684 13.725C117.924 14.605 118.254 15.375 118.674 16.035C119.094 16.695 119.584 17.21 120.144 17.58C120.704 17.95 121.309 18.135 121.959 18.135C122.789 18.135 123.529 17.97 124.179 17.64C124.839 17.3 125.409 16.89 125.889 16.41C126.379 15.92 126.794 15.46 127.134 15.03C127.344 15.16 127.594 15.35 127.884 15.6C128.174 15.85 128.444 16.11 128.694 16.38C128.954 16.64 129.149 16.875 129.279 17.085ZM132.635 20.985C132.595 20.545 132.545 19.875 132.485 18.975C132.425 18.075 132.37 17.035 132.32 15.855C132.27 14.675 132.22 13.44 132.17 12.15C132.13 10.85 132.095 9.575 132.065 8.325C132.045 7.065 132.035 5.915 132.035 4.875C132.035 4.225 132.04 3.635 132.05 3.105C132.07 2.565 132.095 2.12 132.125 1.77C132.215 1.76 132.385 1.745 132.635 1.725C132.895 1.705 133.185 1.69 133.505 1.68C133.825 1.66 134.135 1.645 134.435 1.635C134.745 1.625 135 1.62 135.2 1.62C135.16 2.17 135.13 2.8 135.11 3.51C135.1 4.21 135.095 4.885 135.095 5.535C135.095 6.455 135.105 7.33 135.125 8.16C135.145 8.98 135.16 9.51 135.17 9.75C135.39 9.73 135.7 9.71 136.1 9.69C136.5 9.66 136.94 9.635 137.42 9.615C137.91 9.585 138.395 9.56 138.875 9.54C139.355 9.51 139.795 9.49 140.195 9.48C140.595 9.46 140.9 9.45 141.11 9.45C141.13 9.02 141.15 8.47 141.17 7.8C141.19 7.13 141.215 6.415 141.245 5.655C141.275 4.885 141.305 4.13 141.335 3.39C141.375 2.65 141.41 2 141.44 1.44C141.58 1.43 141.74 1.425 141.92 1.425C142.11 1.415 142.305 1.41 142.505 1.41C142.905 1.41 143.305 1.42 143.705 1.44C144.105 1.46 144.405 1.485 144.605 1.515C144.545 1.925 144.485 2.505 144.425 3.255C144.375 4.005 144.32 4.865 144.26 5.835C144.21 6.795 144.165 7.815 144.125 8.895C144.085 9.975 144.05 11.055 144.02 12.135C143.99 13.215 143.97 14.245 143.96 15.225C143.94 16.005 143.925 16.76 143.915 17.49C143.905 18.21 143.895 18.865 143.885 19.455C143.885 20.045 143.89 20.53 143.9 20.91C143.74 20.93 143.5 20.95 143.18 20.97C142.87 20.98 142.53 20.99 142.16 21C141.8 21 141.45 21 141.11 21C141.11 20.37 141.11 19.655 141.11 18.855C141.11 18.055 141.105 17.245 141.095 16.425C141.095 15.595 141.09 14.815 141.08 14.085C141.08 13.355 141.08 12.74 141.08 12.24C140.88 12.25 140.585 12.26 140.195 12.27C139.805 12.27 139.37 12.28 138.89 12.3C138.42 12.31 137.945 12.32 137.465 12.33C136.995 12.34 136.565 12.35 136.175 12.36C135.795 12.36 135.505 12.36 135.305 12.36C135.335 13.09 135.37 13.91 135.41 14.82C135.46 15.73 135.505 16.62 135.545 17.49C135.595 18.35 135.64 19.09 135.68 19.71C135.72 20.32 135.74 20.695 135.74 20.835C135.6 20.855 135.4 20.875 135.14 20.895C134.88 20.915 134.59 20.935 134.27 20.955C133.96 20.965 133.66 20.975 133.37 20.985C133.08 20.985 132.835 20.985 132.635 20.985Z" fill="#48E344"/>
</svg>
